<?xml version="1.0" encoding="UTF-8" standalone="no"?>
<!DOCTYPE svg PUBLIC "-//W3C//DTD SVG 1.1//EN" "http://www.w3.org/Graphics/SVG/1.1/DTD/svg11.dtd">
<!-- Created with Vectornator (http://vectornator.io/) -->
<svg height="100%" stroke-miterlimit="10" style="fill-rule:nonzero;clip-rule:evenodd;stroke-linecap:round;stroke-linejoin:round;" version="1.1" viewBox="9 1 6 22" width="100%" xml:space="preserve" xmlns="http://www.w3.org/2000/svg" xmlns:vectornator="http://vectornator.io" xmlns:xlink="http://www.w3.org/1999/xlink">
<defs/>
<g id="Ohne-Titel" vectornator:layerName="Ohne Titel">
<g opacity="1" vectornator:layerName="g">
<path d="M12 7C10.3 7 9 5.7 9 4C9 2.3 10.3 1 12 1C13.7 1 15 2.3 15 4C15 5.7 13.7 7 12 7ZM12 3C11.4 3 11 3.4 11 4C11 4.6 11.4 5 12 5C12.6 5 13 4.6 13 4C13 3.4 12.6 3 12 3Z" fill="#ffffff" fill-rule="nonzero" opacity="1" stroke="none" vectornator:layerName="path"/>
<path d="M12 23C10.3 23 9 21.7 9 20C9 18.3 10.3 17 12 17C13.7 17 15 18.3 15 20C15 21.7 13.7 23 12 23ZM12 19C11.4 19 11 19.4 11 20C11 20.6 11.4 21 12 21C12.6 21 13 20.6 13 20C13 19.4 12.6 19 12 19Z" fill="#ffffff" fill-rule="nonzero" opacity="1" stroke="none" vectornator:layerName="path"/>
<path d="M12 15C10.3 15 9 13.7 9 12C9 10.3 10.3 9 12 9C13.7 9 15 10.3 15 12C15 13.7 13.7 15 12 15ZM12 11C11.4 11 11 11.4 11 12C11 12.6 11.4 13 12 13C12.6 13 13 12.6 13 12C13 11.4 12.6 11 12 11Z" fill="#ffffff" fill-rule="nonzero" opacity="1" stroke="none" vectornator:layerName="path"/>
</g>
</g>
</svg>
