<?xml version="1.0" encoding="UTF-8" standalone="no"?>
<!DOCTYPE svg PUBLIC "-//W3C//DTD SVG 1.1//EN" "http://www.w3.org/Graphics/SVG/1.1/DTD/svg11.dtd">
<!-- Created with Vectornator (http://vectornator.io/) -->
<svg height="100%" stroke-miterlimit="10" style="fill-rule:nonzero;clip-rule:evenodd;stroke-linecap:round;stroke-linejoin:round;" version="1.1" viewBox="3 2 18 19" width="100%" xml:space="preserve" xmlns="http://www.w3.org/2000/svg" xmlns:vectornator="http://vectornator.io" xmlns:xlink="http://www.w3.org/1999/xlink">
<defs/>
<g id="Ohne-Titel" vectornator:layerName="Ohne Titel">
<path d="M13 4L8.8 4C7.11984 4 6.27976 4 5.63803 4.32698C5.07354 4.6146 4.6146 5.07354 4.32698 5.63803C4 6.27976 4 7.11984 4 8.8L4 15.2C4 16.8802 4 17.7202 4.32698 18.362C4.6146 18.9265 5.07354 19.3854 5.63803 19.673C6.27976 20 7.11984 20 8.8 20L15.2 20C16.8802 20 17.7202 20 18.362 19.673C18.9265 19.3854 19.3854 18.9265 19.673 18.362C20 17.7202 20 16.8802 20 15.2L20 11" fill="none" opacity="1" stroke="#ffffff" stroke-linecap="round" stroke-linejoin="round" stroke-width="2" vectornator:layerName="path"/>
<path d="M4 16L8.29289 11.7071C8.68342 11.3166 9.31658 11.3166 9.70711 11.7071L13 15M13 15L15.7929 12.2071C16.1834 11.8166 16.8166 11.8166 17.2071 12.2071L20 15M13 15L15.25 17.25" fill="none" opacity="1" stroke="#ffffff" stroke-linecap="round" stroke-linejoin="round" stroke-width="2" vectornator:layerName="path"/>
<path d="M18 3L18 8M18 8L16 6M18 8L20 6" fill="none" opacity="1" stroke="#ffffff" stroke-linecap="round" stroke-linejoin="round" stroke-width="2" vectornator:layerName="path"/>
</g>
</svg>
